<?xml version="1.0" standalone="no"?>
<!DOCTYPE svg PUBLIC "-//W3C//DTD SVG 20010904//EN"
 "http://www.w3.org/TR/2001/REC-SVG-20010904/DTD/svg10.dtd">
<svg version="1.0" xmlns="http://www.w3.org/2000/svg"
 width="256.000000pt" height="256.000000pt" viewBox="0 0 256.000000 256.000000"
 preserveAspectRatio="xMidYMid meet">

<g transform="translate(0.000000,256.000000) scale(0.100000,-0.100000)"
fill="#000000" stroke="none">
<path d="M1792 2104 l-52 -26 0 -55 c0 -30 -5 -63 -11 -74 -8 -16 -7 -23 5
-32 8 -7 16 -28 18 -47 3 -30 7 -35 31 -38 24 -3 27 -7 21 -25 -3 -12 -10 -26
-14 -32 -4 -5 -11 -25 -15 -44 -6 -30 -19 -53 -83 -153 -9 -16 -20 -28 -23
-28 -4 0 -55 52 -114 115 -59 63 -114 115 -121 115 -8 0 -22 9 -31 20 -12 13
-30 20 -55 20 -38 0 -38 0 -38 -40 0 -64 21 -86 88 -94 31 -4 62 -10 67 -14
22 -15 64 -92 59 -106 -3 -9 9 -29 31 -51 20 -21 35 -38 33 -39 -2 0 -120 1
-263 4 -155 3 -253 8 -242 14 39 19 6 56 -52 56 -21 0 -32 -6 -36 -20 -3 -11
-12 -20 -18 -20 -7 0 -18 -9 -25 -20 -15 -25 -72 -28 -72 -5 0 23 -39 95 -51
95 -13 0 -77 153 -79 188 0 1 8 2 19 2 13 0 20 10 24 36 3 20 13 44 21 53 13
14 13 29 5 86 -13 93 -35 116 -111 118 -84 2 -114 -21 -165 -123 -23 -47 -42
-92 -43 -100 0 -8 -14 -24 -30 -35 -47 -31 -98 -112 -115 -185 -9 -36 -22 -87
-30 -114 -8 -26 -15 -59 -15 -73 0 -13 -5 -34 -11 -45 -7 -13 -7 -24 -1 -30 6
-6 8 -44 5 -91 -6 -95 9 -185 38 -221 l21 -26 -26 10 c-15 5 -40 17 -57 25
-16 9 -39 13 -49 10 -24 -8 -24 -4 -5 59 8 27 15 66 15 87 0 49 -56 319 -69
332 -5 5 -21 7 -35 3 -33 -8 -33 -15 -1 -185 29 -156 30 -193 10 -251 -14 -41
-14 -44 5 -62 11 -10 20 -25 20 -33 0 -7 15 -19 34 -26 l34 -12 -18 -26 c-16
-23 -110 -431 -110 -479 0 -14 2 -14 13 -2 8 8 35 116 61 240 45 222 58 256
90 244 9 -4 4 -48 -21 -177 -18 -95 -35 -183 -38 -195 -4 -16 -2 -23 6 -20 7
2 26 78 45 184 18 98 36 189 38 200 5 20 15 22 123 28 65 4 125 9 134 12 30 9
50 -20 64 -95 l14 -73 -29 -59 c-17 -32 -30 -64 -30 -70 0 -7 -8 -21 -17 -31
-9 -11 -20 -44 -23 -74 l-6 -54 38 -12 c29 -8 41 -8 52 1 23 20 70 -7 74 -42
2 -15 8 -27 14 -27 6 0 8 10 4 25 -6 24 -4 25 34 25 22 0 58 7 80 16 54 22 51
47 -7 55 -24 3 -45 7 -47 10 -2 2 -7 29 -11 59 l-7 56 60 79 c33 44 77 97 99
117 l39 38 26 -58 c15 -32 43 -78 62 -103 20 -24 36 -50 36 -58 0 -8 6 -22 14
-30 7 -9 16 -32 20 -51 l6 -36 -70 -12 c-145 -25 -197 -81 -100 -109 86 -25
220 -34 375 -25 120 7 153 6 166 -5 19 -16 133 -8 165 13 12 7 31 10 43 7 29
-7 43 33 36 110 -7 78 4 177 19 177 6 0 19 -7 30 -15 17 -13 18 -19 7 -77 -7
-35 -14 -71 -17 -80 -3 -10 -1 -18 5 -18 5 0 15 34 22 75 8 52 16 75 26 75 24
0 26 -28 11 -141 -8 -61 -11 -112 -7 -114 3 -3 14 46 24 108 10 61 21 116 25
120 13 15 37 -4 48 -38 12 -41 6 -73 -19 -98 -11 -10 -19 -22 -19 -27 0 -15
49 -23 83 -13 26 7 33 15 35 38 5 55 12 75 27 75 8 0 24 9 35 20 l21 21 -31
44 c-17 24 -55 60 -84 80 -30 20 -59 41 -65 49 -12 14 3 134 19 150 8 8 309
-9 317 -18 2 -2 23 -90 46 -196 24 -107 48 -195 54 -197 6 -2 -9 80 -33 183
-48 205 -48 204 -34 204 23 0 42 -58 91 -270 28 -124 53 -227 55 -229 2 -2 7
-1 11 2 9 9 -96 466 -113 494 -12 19 -11 22 6 28 11 4 28 19 38 33 9 15 23 32
31 38 10 8 12 21 7 45 -19 89 -17 136 13 277 17 78 31 147 31 152 0 15 -61 43
-71 33 -5 -5 -23 -86 -39 -180 -28 -160 -29 -172 -15 -213 8 -23 15 -55 15
-71 0 -29 -14 -46 -25 -29 -4 7 -14 5 -28 -5 -13 -9 -43 -15 -74 -15 l-53 0
16 26 c42 62 49 206 14 273 -18 37 -23 65 -26 180 -5 140 -20 211 -55 263 -25
34 -24 46 1 23 11 -10 20 -14 20 -9 0 5 -16 19 -35 31 -20 13 -37 34 -41 50
-13 53 -72 168 -100 195 -28 26 -73 48 -98 48 -6 0 -35 -12 -64 -26z m-867
-765 c209 -9 232 -12 247 -30 22 -26 38 -104 43 -216 3 -51 7 -137 10 -190 3
-55 1 -93 -4 -87 -23 24 -171 334 -171 357 0 8 -5 28 -11 45 -18 51 -73 66
-223 60 -68 -3 -127 -3 -132 1 -11 7 -34 57 -34 73 0 6 9 8 23 4 12 -4 126
-11 252 -17z m924 4 c0 -10 -13 -38 -28 -63 -25 -42 -31 -45 -80 -51 -29 -4
-73 -18 -99 -31 -38 -19 -50 -33 -63 -67 -9 -26 -27 -50 -46 -62 -43 -27 -67
-77 -59 -122 7 -36 55 -88 102 -109 22 -10 23 -17 26 -120 2 -79 -1 -113 -9
-120 -7 -6 -13 -17 -13 -24 0 -11 -6 -11 -27 -3 -15 5 -62 13 -105 16 -54 4
-82 11 -93 23 -13 15 -11 19 24 46 51 37 73 73 60 97 -12 21 -47 22 -73 2 -11
-8 -31 -15 -44 -15 l-24 0 4 248 c5 246 12 295 45 334 12 13 38 16 161 18 81
1 176 5 212 9 113 14 130 13 129 -6z m-3 -375 l-5 -53 10 43 c9 38 13 42 41
42 24 0 28 -3 19 -14 -6 -7 -14 -41 -17 -75 -4 -33 -9 -61 -11 -61 -18 0 -43
25 -43 43 0 16 -3 18 -9 9 -7 -12 -14 -11 -40 2 -45 24 -42 58 7 90 20 14 41
25 45 25 5 1 6 -23 3 -51z m-1146 -33 c0 -17 -11 -43 -23 -59 l-24 -29 -6 49
c-3 27 -9 57 -13 68 -6 15 -4 17 14 12 11 -4 23 -2 27 5 11 17 25 -9 25 -46z
m87 20 c-16 -14 -33 -23 -38 -19 -6 3 -16 0 -24 -6 -13 -11 -15 -7 -15 19 0
31 0 31 53 31 l52 -1 -28 -24z m-37 -327 c0 -30 -1 -31 -19 -14 -16 15 -18 22
-8 36 15 25 27 15 27 -22z"/>
</g>
</svg>
